<?xml version="1.0" standalone="no"?><!DOCTYPE svg PUBLIC "-//W3C//DTD SVG 1.1//EN" "http://www.w3.org/Graphics/SVG/1.1/DTD/svg11.dtd"><svg t="1581557743397" class="icon" viewBox="0 0 1024 1024" version="1.1" xmlns="http://www.w3.org/2000/svg" p-id="3928" xmlns:xlink="http://www.w3.org/1999/xlink" width="81" height="81"><defs><style type="text/css"></style></defs><path d="M503.808 626.688 311.296 435.2c-4.096-4.096-8.192-8.192-17.408-8.192-13.312 0-21.504 8.192-21.504 21.504 0 4.096 4.096 13.312 4.096 13.312l208.896 208.896c4.096 4.096 8.192 4.096 13.312 4.096s13.312-4.096 17.408-8.192l0 0 346.112-362.496 0 0 33.792-25.6 0 0 59.392-64.512 0 0c4.096-4.096 4.096-8.192 4.096-13.312 0-13.312-8.192-21.504-21.504-21.504-4.096 0-13.312 4.096-17.408 8.192l0 0-55.296 55.296 0 0-29.696 29.696 0 0L503.808 626.688zM925.696 336.896c-8.192-8.192-21.504-8.192-29.696 0-4.096 4.096-8.192 13.312-4.096 21.504l0 0c17.408 47.104 29.696 98.304 29.696 153.6 0 230.4-187.392 417.792-417.792 417.792S84.992 742.4 84.992 512 273.408 94.208 503.808 94.208c119.808 0 222.208 47.104 299.008 128l0 0c8.192 8.192 21.504 8.192 29.696 0 8.192-8.192 8.192-21.504 0-29.696 0 0 0 0-4.096 0C746.496 106.496 631.808 55.296 503.808 55.296 251.904 55.296 47.104 260.096 47.104 512s204.8 456.704 456.704 456.704 456.704-204.8 456.704-456.704c0-59.392-13.312-115.712-29.696-166.912C929.792 340.992 925.696 336.896 925.696 336.896z" p-id="3929"></path></svg>