<?xml version="1.0" standalone="no"?><!DOCTYPE svg PUBLIC "-//W3C//DTD SVG 1.1//EN" "http://www.w3.org/Graphics/SVG/1.1/DTD/svg11.dtd"><svg t="1581557493544" class="icon" viewBox="0 0 1024 1024" version="1.1" xmlns="http://www.w3.org/2000/svg" p-id="1965" xmlns:xlink="http://www.w3.org/1999/xlink" width="81" height="81"><defs><style type="text/css"></style></defs><path d="M615 96c0 17.673-14.327 32-32 32H144c-8.837 0-16 7.163-16 16v736c0 8.837 7.163 16 16 16h736c8.837 0 16-7.163 16-16V441c0-17.673 14.327-32 32-32 17.673 0 32 14.327 32 32v487c0 17.673-14.327 32-32 32H96c-17.673 0-32-14.327-32-32V96c0-17.673 14.327-32 32-32h487c17.673 0 32 14.327 32 32zM317.212 632.384l-37.02 120.458 119.044-38.434 408.708-408.707-82.025-82.025-408.707 408.708zM799.459 59.627c12.496-12.496 32.758-12.496 45.254 0l127.28 127.28c12.496 12.496 12.496 32.758 0 45.254L444.49 759.663 239.326 811.74c-8.565 2.174-17.27-3.007-19.445-11.572a16 16 0 0 1 0-7.873l52.076-205.165L799.459 59.627z m53.74 200.819l45.254-45.255a8 8 0 0 0 0-11.314l-70.71-70.71a8 8 0 0 0-11.314 0l-45.255 45.254 82.025 82.025z" p-id="1966"></path></svg>