<?xml version="1.0" standalone="no"?><!DOCTYPE svg PUBLIC "-//W3C//DTD SVG 1.1//EN" "http://www.w3.org/Graphics/SVG/1.1/DTD/svg11.dtd"><svg t="1581564503885" class="icon" viewBox="0 0 1024 1024" version="1.1" xmlns="http://www.w3.org/2000/svg" p-id="1966" xmlns:xlink="http://www.w3.org/1999/xlink" width="81" height="81"><defs><style type="text/css"></style></defs><path d="M512 998.4c-268.1344 0-486.4-218.17344-486.4-486.4a44.2368 44.2368 0 0 1 44.21632-44.21632A44.2368 44.2368 0 0 1 114.03776 512c0 219.41248 178.54976 397.96224 397.96224 397.96224 107.008 0 207.2064-42.27072 281.05216-116.02944h-84.992a44.17536 44.17536 0 0 1-44.21632-44.21632 44.17536 44.17536 0 0 1 44.22144-44.21632h176.8704a44.288 44.288 0 0 1 38.73792 22.9888c7.7824 14.15168 7.16288 31.39584-1.50528 45.1072C832.13824 914.29376 678.88128 998.4 512 998.4z m442.18368-442.18368a44.2368 44.2368 0 0 1-44.22144-44.21632c0-219.41248-178.54976-397.96224-397.96224-397.96224-107.008 0-207.2064 42.35776-280.96 116.02944h84.98688a44.17536 44.17536 0 0 1 44.21632 44.21632 44.17536 44.17536 0 0 1-44.21632 44.21632H139.15136a44.288 44.288 0 0 1-37.31968-68.00384C191.7696 109.70112 345.11872 25.6 512 25.6c268.1344 0 486.4 218.2656 486.4 486.4a44.2368 44.2368 0 0 1-44.21632 44.21632z" fill="#304156" p-id="1967"></path></svg>